<?xml version="1.0" encoding="UTF-8" ?>
<svg version="1.1" width="128" height="128" xmlns="http://www.w3.org/2000/svg" shape-rendering="crispEdges">
<rect x="4" y="10" width="8" height="16" fill="#007100" />
<rect x="116" y="10" width="8" height="16" fill="#007100" />
<rect x="2" y="12" width="2" height="12" fill="#007100" />
<rect x="12" y="12" width="2" height="12" fill="#007100" />
<rect x="114" y="12" width="2" height="12" fill="#007100" />
<rect x="124" y="12" width="2" height="12" fill="#007100" />
<rect x="0" y="14" width="2" height="8" fill="#007100" />
<rect x="14" y="14" width="2" height="8" fill="#007100" />
<rect x="112" y="14" width="2" height="8" fill="#007100" />
<rect x="126" y="14" width="2" height="8" fill="#007100" />
<rect x="16" y="16" width="12" height="6" fill="#00AA00" />
<rect x="100" y="16" width="12" height="6" fill="#00AA00" />
<rect x="28" y="18" width="2" height="10" fill="#00AA00" />
<rect x="98" y="18" width="2" height="10" fill="#00AA00" />
<rect x="30" y="20" width="2" height="10" fill="#00AA00" />
<rect x="96" y="20" width="2" height="10" fill="#00AA00" />
<rect x="26" y="22" width="2" height="2" fill="#00AA00" />
<rect x="32" y="22" width="2" height="28" fill="#00AA00" />
<rect x="94" y="22" width="2" height="28" fill="#00AA00" />
<rect x="100" y="22" width="2" height="2" fill="#00AA00" />
<rect x="34" y="26" width="2" height="24" fill="#00AA00" />
<rect x="92" y="26" width="2" height="24" fill="#00AA00" />
<rect x="36" y="30" width="2" height="20" fill="#00AA00" />
<rect x="90" y="30" width="2" height="20" fill="#00AA00" />
<rect x="30" y="36" width="2" height="16" fill="#00AA00" />
<rect x="96" y="36" width="2" height="16" fill="#00AA00" />
<rect x="28" y="38" width="2" height="22" fill="#00AA00" />
<rect x="54" y="38" width="20" height="14" fill="#00AA00" />
<rect x="98" y="38" width="2" height="22" fill="#00AA00" />
<rect x="26" y="40" width="2" height="22" fill="#00AA00" />
<rect x="38" y="40" width="2" height="8" fill="#00AA00" />
<rect x="46" y="40" width="8" height="10" fill="#00AA00" />
<rect x="74" y="40" width="8" height="10" fill="#00AA00" />
<rect x="88" y="40" width="2" height="8" fill="#00AA00" />
<rect x="100" y="40" width="2" height="22" fill="#00AA00" />
<rect x="40" y="42" width="6" height="6" fill="#00AA00" />
<rect x="82" y="42" width="6" height="6" fill="#00AA00" />
<rect x="24" y="46" width="2" height="56" fill="#00AA00" />
<rect x="102" y="46" width="2" height="56" fill="#00AA00" />
<rect x="38" y="48" width="6" height="12" fill="#007100" />
<rect x="44" y="48" width="2" height="2" fill="#00AA00" />
<rect x="82" y="48" width="2" height="2" fill="#00AA00" />
<rect x="84" y="48" width="6" height="12" fill="#007100" />
<rect x="32" y="50" width="6" height="10" fill="#007100" />
<rect x="44" y="50" width="10" height="12" fill="#007100" />
<rect x="74" y="50" width="10" height="12" fill="#007100" />
<rect x="90" y="50" width="6" height="10" fill="#007100" />
<rect x="30" y="52" width="2" height="2" fill="#007100" />
<rect x="54" y="52" width="2" height="12" fill="#007100" />
<rect x="56" y="52" width="16" height="2" fill="#00AA00" />
<rect x="72" y="52" width="2" height="12" fill="#007100" />
<rect x="96" y="52" width="2" height="2" fill="#007100" />
<rect x="22" y="54" width="2" height="44" fill="#00AA00" />
<rect x="30" y="54" width="2" height="2" fill="#00AA00" />
<rect x="56" y="54" width="2" height="10" fill="#007100" />
<rect x="58" y="54" width="12" height="2" fill="#00AA00" />
<rect x="70" y="54" width="2" height="10" fill="#007100" />
<rect x="96" y="54" width="2" height="2" fill="#00AA00" />
<rect x="104" y="54" width="2" height="44" fill="#00AA00" />
<rect x="20" y="56" width="2" height="38" fill="#00AA00" />
<rect x="30" y="56" width="2" height="2" fill="#007100" />
<rect x="58" y="56" width="2" height="10" fill="#007100" />
<rect x="60" y="56" width="8" height="2" fill="#00AA00" />
<rect x="68" y="56" width="2" height="10" fill="#007100" />
<rect x="96" y="56" width="2" height="2" fill="#007100" />
<rect x="106" y="56" width="2" height="38" fill="#00AA00" />
<rect x="30" y="58" width="2" height="2" fill="#00AA00" />
<rect x="60" y="58" width="2" height="6" fill="#007100" />
<rect x="62" y="58" width="4" height="30" fill="#00AA00" />
<rect x="66" y="58" width="2" height="6" fill="#007100" />
<rect x="96" y="58" width="2" height="2" fill="#00AA00" />
<rect x="28" y="60" width="8" height="10" fill="#EFEFEF" />
<rect x="36" y="60" width="8" height="8" fill="#000000" />
<rect x="84" y="60" width="8" height="8" fill="#000000" />
<rect x="92" y="60" width="8" height="10" fill="#EFEFEF" />
<rect x="26" y="62" width="2" height="4" fill="#EFEFEF" />
<rect x="44" y="62" width="8" height="10" fill="#000000" />
<rect x="52" y="62" width="2" height="2" fill="#007100" />
<rect x="74" y="62" width="2" height="2" fill="#007100" />
<rect x="76" y="62" width="8" height="10" fill="#000000" />
<rect x="100" y="62" width="2" height="4" fill="#EFEFEF" />
<rect x="18" y="64" width="2" height="22" fill="#00AA00" />
<rect x="52" y="64" width="2" height="6" fill="#000000" />
<rect x="54" y="64" width="4" height="8" fill="#EFEFEF" />
<rect x="60" y="64" width="2" height="24" fill="#00AA00" />
<rect x="66" y="64" width="2" height="24" fill="#00AA00" />
<rect x="70" y="64" width="4" height="8" fill="#EFEFEF" />
<rect x="74" y="64" width="2" height="6" fill="#000000" />
<rect x="108" y="64" width="2" height="22" fill="#00AA00" />
<rect x="26" y="66" width="2" height="38" fill="#00AA00" />
<rect x="58" y="66" width="2" height="4" fill="#EFEFEF" />
<rect x="68" y="66" width="2" height="4" fill="#EFEFEF" />
<rect x="100" y="66" width="2" height="38" fill="#00AA00" />
<rect x="36" y="68" width="2" height="6" fill="#EFEFEF" />
<rect x="38" y="68" width="6" height="4" fill="#000000" />
<rect x="84" y="68" width="6" height="4" fill="#000000" />
<rect x="90" y="68" width="2" height="6" fill="#EFEFEF" />
<rect x="28" y="70" width="2" height="36" fill="#00AA00" />
<rect x="30" y="70" width="6" height="4" fill="#EFEFEF" />
<rect x="52" y="70" width="2" height="6" fill="#EFEFEF" />
<rect x="58" y="70" width="2" height="8" fill="#00AA00" />
<rect x="68" y="70" width="2" height="8" fill="#00AA00" />
<rect x="74" y="70" width="2" height="6" fill="#EFEFEF" />
<rect x="92" y="70" width="6" height="4" fill="#EFEFEF" />
<rect x="98" y="70" width="2" height="36" fill="#00AA00" />
<rect x="38" y="72" width="2" height="4" fill="#EFEFEF" />
<rect x="40" y="72" width="10" height="2" fill="#000000" />
<rect x="50" y="72" width="2" height="4" fill="#EFEFEF" />
<rect x="54" y="72" width="2" height="2" fill="#EFEFEF" />
<rect x="56" y="72" width="2" height="6" fill="#00AA00" />
<rect x="70" y="72" width="2" height="6" fill="#00AA00" />
<rect x="72" y="72" width="2" height="2" fill="#EFEFEF" />
<rect x="76" y="72" width="2" height="4" fill="#EFEFEF" />
<rect x="78" y="72" width="10" height="2" fill="#000000" />
<rect x="88" y="72" width="2" height="4" fill="#EFEFEF" />
<rect x="30" y="74" width="8" height="4" fill="#007100" />
<rect x="40" y="74" width="10" height="2" fill="#EFEFEF" />
<rect x="54" y="74" width="2" height="16" fill="#00AA00" />
<rect x="72" y="74" width="2" height="16" fill="#00AA00" />
<rect x="78" y="74" width="10" height="2" fill="#EFEFEF" />
<rect x="90" y="74" width="8" height="4" fill="#007100" />
<rect x="38" y="76" width="16" height="2" fill="#007100" />
<rect x="74" y="76" width="16" height="2" fill="#007100" />
<rect x="30" y="78" width="10" height="20" fill="#00AA00" />
<rect x="40" y="78" width="14" height="2" fill="#007100" />
<rect x="56" y="78" width="4" height="6" fill="#007100" />
<rect x="68" y="78" width="4" height="6" fill="#007100" />
<rect x="74" y="78" width="14" height="2" fill="#007100" />
<rect x="88" y="78" width="10" height="20" fill="#00AA00" />
<rect x="40" y="80" width="14" height="10" fill="#00AA00" />
<rect x="74" y="80" width="14" height="10" fill="#00AA00" />
<rect x="56" y="84" width="4" height="4" fill="#00AA00" />
<rect x="68" y="84" width="4" height="4" fill="#00AA00" />
<rect x="56" y="88" width="2" height="2" fill="#00AA00" />
<rect x="58" y="88" width="12" height="8" fill="#007100" />
<rect x="70" y="88" width="2" height="2" fill="#00AA00" />
<rect x="40" y="90" width="12" height="2" fill="#00AA00" />
<rect x="52" y="90" width="6" height="6" fill="#007100" />
<rect x="70" y="90" width="6" height="6" fill="#007100" />
<rect x="76" y="90" width="12" height="2" fill="#00AA00" />
<rect x="40" y="92" width="6" height="2" fill="#00AA00" />
<rect x="46" y="92" width="6" height="6" fill="#007100" />
<rect x="76" y="92" width="6" height="6" fill="#007100" />
<rect x="82" y="92" width="6" height="2" fill="#00AA00" />
<rect x="40" y="94" width="2" height="2" fill="#00AA00" />
<rect x="42" y="94" width="4" height="8" fill="#007100" />
<rect x="82" y="94" width="4" height="8" fill="#007100" />
<rect x="86" y="94" width="2" height="2" fill="#00AA00" />
<rect x="40" y="96" width="2" height="8" fill="#007100" />
<rect x="52" y="96" width="4" height="2" fill="#007100" />
<rect x="56" y="96" width="16" height="22" fill="#00AA00" />
<rect x="72" y="96" width="4" height="2" fill="#007100" />
<rect x="86" y="96" width="2" height="8" fill="#007100" />
<rect x="30" y="98" width="8" height="2" fill="#00AA00" />
<rect x="38" y="98" width="2" height="6" fill="#007100" />
<rect x="46" y="98" width="4" height="2" fill="#007100" />
<rect x="50" y="98" width="6" height="18" fill="#00AA00" />
<rect x="72" y="98" width="6" height="18" fill="#00AA00" />
<rect x="78" y="98" width="4" height="2" fill="#007100" />
<rect x="88" y="98" width="2" height="6" fill="#007100" />
<rect x="90" y="98" width="8" height="2" fill="#00AA00" />
<rect x="30" y="100" width="6" height="8" fill="#00AA00" />
<rect x="36" y="100" width="2" height="2" fill="#007100" />
<rect x="46" y="100" width="4" height="16" fill="#00AA00" />
<rect x="78" y="100" width="4" height="16" fill="#00AA00" />
<rect x="90" y="100" width="2" height="2" fill="#007100" />
<rect x="92" y="100" width="6" height="8" fill="#00AA00" />
<rect x="36" y="102" width="2" height="10" fill="#00AA00" />
<rect x="42" y="102" width="4" height="12" fill="#00AA00" />
<rect x="82" y="102" width="4" height="12" fill="#00AA00" />
<rect x="90" y="102" width="2" height="10" fill="#00AA00" />
<rect x="38" y="104" width="4" height="10" fill="#00AA00" />
<rect x="86" y="104" width="4" height="10" fill="#00AA00" />
<rect x="32" y="108" width="4" height="2" fill="#00AA00" />
<rect x="92" y="108" width="4" height="2" fill="#00AA00" />
<rect x="34" y="110" width="2" height="2" fill="#00AA00" />
<rect x="92" y="110" width="2" height="2" fill="#00AA00" />
<rect x="52" y="116" width="4" height="2" fill="#00AA00" />
<rect x="72" y="116" width="4" height="2" fill="#00AA00" />
</svg>